<svg xmlns="http://www.w3.org/2000/svg" viewBox="0 0 35 35"><defs><style>.cls-1{fill:#6a54fa;}</style></defs><g id="Layer_9" data-name="Layer 9"><path class="cls-1" d="M19.12,30.4H13.35V13H19.1v2.4c.12-.14.18-.2.23-.27a5.72,5.72,0,0,1,5.22-2.56,6.32,6.32,0,0,1,4,1.36,6.49,6.49,0,0,1,2.21,3.87A12.85,12.85,0,0,1,31,20.22c0,3.3,0,6.59,0,9.89v.28H25.21V30c0-2.93,0-5.87,0-8.8a8.36,8.36,0,0,0-.25-2,2.82,2.82,0,0,0-4.59-1.38,3.47,3.47,0,0,0-1.25,2.89c0,3.1,0,6.19,0,9.28Z"/><path class="cls-1" d="M10.11,30.4H4.37V13h5.74Z"/><path class="cls-1" d="M10.51,7.65A2.94,2.94,0,0,1,8,10.57,3.44,3.44,0,0,1,5,9.87a2.86,2.86,0,0,1-.93-3A2.82,2.82,0,0,1,6.3,4.73a3.78,3.78,0,0,1,2,0A2.91,2.91,0,0,1,10.51,7.65Z"/></g></svg>