<svg xmlns="http://www.w3.org/2000/svg" viewBox="0 0 35 35"><defs><style>.cls-1{fill:#6a54fa;}</style></defs><g id="Layer_8" data-name="Layer 8"><path class="cls-1" d="M3.84,17.47c0-2,0-4.14.13-6.22A7.65,7.65,0,0,1,7.79,5a7.69,7.69,0,0,1,3.89-1.13c4-.11,8.08-.18,12.12,0a7.59,7.59,0,0,1,6.5,4.19,7.56,7.56,0,0,1,.92,3.51c.11,4,.18,8.09,0,12.13a7.61,7.61,0,0,1-4.38,6.59,7.44,7.44,0,0,1-3.27.83c-4.05.11-8.1.18-12.15,0a7.62,7.62,0,0,1-6.68-4.5,7.17,7.17,0,0,1-.77-3.18C3.91,21.45,3.87,19.48,3.84,17.47Zm24.93-.14h-.09V11.91a5.36,5.36,0,0,0-.61-2.55,5.26,5.26,0,0,0-4.85-2.95c-3.76,0-7.52,0-11.29,0a5.45,5.45,0,0,0-1.14.12A5.33,5.33,0,0,0,6.5,11.78c0,3.81,0,7.62,0,11.43a5.23,5.23,0,0,0,1.67,3.87,5.44,5.44,0,0,0,3.92,1.52h11a6.69,6.69,0,0,0,1.41-.15,5.29,5.29,0,0,0,4.14-4.81C28.73,21.53,28.73,19.43,28.77,17.33Z"/><path class="cls-1" d="M17.59,24.55a7.05,7.05,0,1,1,7-7.07A7,7,0,0,1,17.59,24.55Zm4.49-7.06A4.5,4.5,0,1,0,17.58,22,4.52,4.52,0,0,0,22.08,17.49Z"/><path class="cls-1" d="M24.67,8.74a1.59,1.59,0,1,1-1.57,1.59A1.55,1.55,0,0,1,24.67,8.74Z"/></g></svg>