<svg xmlns="http://www.w3.org/2000/svg" viewBox="0 0 35 35"><defs><style>.cls-1{fill:#6a54fa;}</style></defs><g id="Layer_7" data-name="Layer 7"><path class="cls-1" d="M21.09,21.89V29.3c0,.14,0,.29,0,.43A1.51,1.51,0,0,0,21.65,31a2.57,2.57,0,0,1-2.82-2,2.19,2.19,0,0,1,0-.36c0-2,0-4.09,0-6.13a.64.64,0,0,0-.09-.4.41.41,0,0,0-.36-.13.55.55,0,0,0-.27.29.68.68,0,0,0,0,.32c0,2,0,3.91,0,5.87a2.44,2.44,0,0,1-2.3,2.55l-.6.07a1.68,1.68,0,0,0,.59-1.46V22.12a1.8,1.8,0,0,0,0-.22.7.7,0,0,0-.72.81v5.66a2.43,2.43,0,0,1-2.24,2.57l-.66.07a1.57,1.57,0,0,0,.6-1.37q0-3.18,0-6.36s0-.09,0-.17a11.63,11.63,0,0,1-1.32,0,10.54,10.54,0,0,1-2-.33A4,4,0,0,1,7,20.63c-.34-.63-.62-1.29-.92-1.94-.16-.33-.31-.66-.48-1a3.07,3.07,0,0,0-1.78-1.63l0-.09c.37.09.74.16,1.1.28A5,5,0,0,1,6.82,17.5c.66.65,1.3,1.33,2,2a3.59,3.59,0,0,0,2.6,1c.46,0,.92,0,1.39,0,.09,0,.23-.05.26-.12a5,5,0,0,1,1.6-2.06c-.41-.19-.79-.35-1.16-.55a6.32,6.32,0,0,1-2.39-2.23.42.42,0,0,0-.45-.23l-3.26.37c-.08,0-.19.06-.26,0a2.9,2.9,0,0,1-.36-.25c.1-.11.18-.3.3-.32.52-.1,1-.16,1.57-.22l2-.2c0-.34-.16-.51-.54-.48-1.32.09-2.64.14-4,.21-.21,0-.4,0-.42-.26s.14-.32.35-.33l3.87-.21h.3C10.14,13,10.06,12.51,10,12a6.51,6.51,0,0,1,1-3.74.89.89,0,0,0,.08-.56,6.63,6.63,0,0,1,.24-3.42A.34.34,0,0,1,11.82,4,6.45,6.45,0,0,1,14.6,5.26a.57.57,0,0,0,.41.09c.56,0,1.11-.18,1.67-.2,1.23,0,2.47,0,3.71,0a9.63,9.63,0,0,1,1.4.2.56.56,0,0,0,.48-.1A6.15,6.15,0,0,1,25.07,4a.31.31,0,0,1,.39.23,5.54,5.54,0,0,1,.32,2.9,2.37,2.37,0,0,0,.28,1.64,6.42,6.42,0,0,1,.59,4.59l0,.13,0,.08H27l3.83.21c.21,0,.39.08.37.32s-.22.28-.44.27l-3.9-.21c-.35,0-.55.08-.58.47l1.94.21,1.54.2c.22,0,.37.11.34.36s-.22.25-.41.23l-2.43-.3c-.37,0-.74-.08-1.12-.09a.41.41,0,0,0-.29.13,6.72,6.72,0,0,1-3.51,2.79l-.08.07c.2.2.41.37.6.57a4.76,4.76,0,0,1,1.29,3.4c0,2.32,0,4.64,0,7,0,.22,0,.44,0,.66A1.41,1.41,0,0,0,24.68,31a2.5,2.5,0,0,1-2.84-2.47V22.76C21.84,22.2,21.64,22,21.09,21.89Zm-2.76-4.95a24.06,24.06,0,0,0,2.7-.13,4.22,4.22,0,0,0-.14-8.33,22.69,22.69,0,0,0-2.61-.07,20.32,20.32,0,0,0-2.47.07,4.23,4.23,0,0,0-.17,8.33A24.34,24.34,0,0,0,18.33,16.94Z"/><path class="cls-1" d="M20.24,11.72c0-.27,0-.55,0-.82a1,1,0,0,1,2.07,0c0,.56,0,1.13,0,1.69a1,1,0,0,1-2.07,0C20.23,12.3,20.24,12,20.24,11.72Z"/><path class="cls-1" d="M16.75,11.72c0,.3,0,.6,0,.9a1,1,0,0,1-1,1,1,1,0,0,1-1-1c0-.56,0-1.13,0-1.69a1,1,0,0,1,1-1,1.06,1.06,0,0,1,1.06,1c0,.27,0,.55,0,.82Z"/></g></svg>