<svg xmlns="http://www.w3.org/2000/svg" viewBox="0 0 35 35"><defs><style>.cls-1{fill:#6a54fa;}</style></defs><g id="Layer_6" data-name="Layer 6"><path class="cls-1" d="M4.09,27.23l2.84-2.48L12.37,20a.93.93,0,0,0,.33-1.14.91.91,0,0,0-.93-.57,1.45,1.45,0,0,0-.64.3L3.39,25.34l-.34.27A6.89,6.89,0,0,1,3,24.8V10.19a3.24,3.24,0,0,1,.48-1.65L4.77,9.65,16.68,19.74c.66.56,1,.54,1.69,0l13-11,.22-.17A3.18,3.18,0,0,1,32,10.29V21.61c0,1.05,0,2.1,0,3.15,0,.26-.05.52-.09.85l-.37-.3-7.71-6.74A.94.94,0,1,0,22.63,20l3.73,3.27L30.68,27l.23.2a3.36,3.36,0,0,1-2.33.86h-22a3.58,3.58,0,0,1-2.13-.61C4.3,27.41,4.21,27.33,4.09,27.23Z"/><path class="cls-1" d="M4.91,7.15a9,9,0,0,1,1.44-.23H28.67a3.14,3.14,0,0,1,1.47.35L28.51,8.65,17.79,17.73a.36.36,0,0,1-.57,0Q11.18,12.6,5.1,7.47l-.2-.19Z"/></g></svg>